<svg width="44" height="45" viewBox="0 0 44 45" fill="none" xmlns="http://www.w3.org/2000/svg">
<path d="M41.3188 4.98956C37.8087 3.5253 34.4262 2.87227 31.4569 2.81426C26.8201 2.89688 23.6118 4.34795 22 5.25059C20.3882 4.34795 17.1035 2.89512 12.5889 2.8125C9.53333 2.80811 6.14167 3.54639 2.68125 4.98956C1.08319 5.65401 0 7.41885 0 9.37793V36C0 37.2885 0.525174 38.4662 1.44299 39.2344C2.34514 39.9842 3.47799 40.1994 4.55431 39.8304C13.6369 36.6364 20.5425 41.5047 20.9244 41.7807C21.2208 41.9766 21.4806 42.1875 21.9312 42.1875C22.4293 42.1875 22.7043 41.9789 23.006 41.7851C23.8295 41.1973 30.5151 36.7174 39.3762 39.8278C40.454 40.2014 41.5808 39.9816 42.489 39.2291C43.4729 38.4609 44 37.2832 44 36V9.37793C44 7.41973 42.9153 5.65577 41.3188 4.98956ZM20.7778 38.5049C18.8719 37.4476 15.3534 35.9235 10.809 35.9235C8.68312 35.9235 6.34028 36.2586 3.84313 37.1338C3.50656 37.2519 3.15562 37.186 2.87375 36.9539C2.59875 36.7207 2.44444 36.3076 2.44444 36V9.37793C2.44444 8.59931 2.86932 7.89874 3.50319 7.63506C6.69625 6.30176 9.77014 5.62061 12.566 5.625C16.5229 5.6962 19.4181 6.96622 20.7778 7.7045V38.5049ZM41.5556 36C41.5556 36.3845 41.4016 36.7237 41.1282 36.9527C40.8406 37.1903 40.4944 37.2535 40.1589 37.1395C32.3965 34.418 26.0715 36.9492 23.2222 38.5225V7.7045C24.5819 6.96622 27.4771 5.6962 31.4264 5.625C34.1237 5.61947 37.2579 6.28278 40.5014 7.63594C41.1278 7.89961 41.5556 8.59922 41.5556 9.37793V36Z" fill="#FFF9F9"/>
</svg>
